<?xml version="1.0" encoding="utf-8"?>
<!-- Generator: Adobe Illustrator 15.0.0, SVG Export Plug-In . SVG Version: 6.00 Build 0)  -->
<!DOCTYPE svg PUBLIC "-//W3C//DTD SVG 1.1//EN" "http://www.w3.org/Graphics/SVG/1.1/DTD/svg11.dtd">
<svg version="1.1" id="Layer_1" xmlns="http://www.w3.org/2000/svg" xmlns:xlink="http://www.w3.org/1999/xlink" x="0px" y="0px"
	 width="28.346px" height="28.346px" viewBox="0 0 28.346 28.346" enable-background="new 0 0 28.346 28.346" xml:space="preserve">
<g>
	<path fill="current" d="M15.869,2.022l0.423,2.795l0.165,1.091l1.012,0.442c0.621,0.271,1.22,0.629,1.78,1.063l0.895,0.693
		l1.055-0.41l2.637-1.025l1.69,2.929l-2.299,1.834l-0.855,0.683l0.113,1.088c0.03,0.292,0.046,0.587,0.046,0.876
		c0,0.324-0.024,0.667-0.078,1.082l-0.144,1.112l0.874,0.703l2.299,1.846l-1.691,2.929l-2.823-1.106l-1.022-0.4l-0.887,0.647
		c-0.528,0.387-1.08,0.704-1.64,0.946l-1.016,0.438l-0.168,1.093l-0.455,2.954h-3.381l-0.444-2.943l-0.166-1.1l-1.021-0.439
		c-0.574-0.246-1.14-0.575-1.682-0.977L8.198,20.21L7.169,20.61l-2.736,1.064l-1.69-2.928l2.244-1.79l0.877-0.7l-0.14-1.113
		c-0.052-0.412-0.076-0.749-0.076-1.061c0-0.299,0.022-0.627,0.067-1.003l0.132-1.103l-0.866-0.695L2.787,9.523l1.69-2.929
		l2.604,1.021l1.042,0.408l0.893-0.675c0.586-0.443,1.206-0.801,1.843-1.065l1.04-0.431L12.07,4.74l0.418-2.718H15.869
		 M16.679,0.022h-5.008c-0.602,0-0.922,0.333-1.041,0.925l-0.537,3.489C9.273,4.776,8.51,5.224,7.811,5.753L4.509,4.459
		C4.33,4.398,4.161,4.365,4.005,4.365c-0.354,0-0.645,0.165-0.854,0.528L0.647,9.231c-0.301,0.521-0.173,0.965,0.281,1.364
		l2.8,2.246c-0.049,0.408-0.081,0.821-0.081,1.241c0,0.446,0.038,0.881,0.092,1.311l-2.831,2.259
		c-0.466,0.408-0.604,0.873-0.302,1.394l2.504,4.338c0.21,0.363,0.492,0.527,0.837,0.527c0.15,0,0.312-0.031,0.485-0.09l3.462-1.347
		c0.644,0.477,1.337,0.887,2.083,1.207l0.557,3.686c0.121,0.608,0.453,0.959,1.056,0.959h5.01c0.602,0,0.921-0.333,1.039-0.925
		l0.573-3.725c0.724-0.313,1.399-0.709,2.026-1.167l3.521,1.38c0.179,0.061,0.348,0.093,0.503,0.093
		c0.355,0,0.646-0.165,0.855-0.527l2.506-4.339c0.3-0.521,0.171-0.964-0.283-1.363l-2.904-2.333
		c0.057-0.438,0.095-0.883,0.095-1.337c0-0.365-0.02-0.727-0.057-1.083l2.887-2.303c0.467-0.408,0.604-0.873,0.302-1.393
		l-2.504-4.339c-0.211-0.363-0.492-0.526-0.837-0.526c-0.15,0-0.312,0.031-0.484,0.089l-3.363,1.307
		c-0.675-0.523-1.412-0.969-2.204-1.315l-0.535-3.537C17.615,0.372,17.282,0.022,16.679,0.022L16.679,0.022z"/>
</g>
<circle fill="current" cx="14.173" cy="14.173" r="3.5"/>
</svg>
